<svg width="128" height="128" viewBox="0 0 128 128" xmlns="http://www.w3.org/2000/svg">
  <defs>
    <linearGradient id="grad1" x1="0%" y1="0%" x2="100%" y2="100%">
      <stop offset="0%" style="stop-color:#667eea;stop-opacity:1" />
      <stop offset="100%" style="stop-color:#764ba2;stop-opacity:1" />
    </linearGradient>
  </defs>
  
  <!-- Background circle -->
  <circle cx="64" cy="64" r="60" fill="url(#grad1)" stroke="#fff" stroke-width="3"/>
  
  <!-- Magnifying glass -->
  <circle cx="48" cy="48" r="24" fill="none" stroke="#fff" stroke-width="6"/>
  <line x1="72" y1="72" x2="88" y2="88" stroke="#fff" stroke-width="6" stroke-linecap="round"/>
  
  <!-- API symbols -->
  <rect x="80" y="24" width="16" height="16" fill="#fff" rx="2"/>
  <rect x="24" y="80" width="16" height="16" fill="#fff" rx="2"/>
  <rect x="88" y="88" width="12" height="12" fill="#fff" rx="1.5"/>
  
  <!-- Additional API elements -->
  <circle cx="96" cy="32" r="4" fill="#fff"/>
  <circle cx="32" cy="96" r="4" fill="#fff"/>
  
  <!-- Code brackets -->
  <path d="M 40 56 L 32 64 L 40 72" stroke="#fff" stroke-width="4" fill="none" stroke-linecap="round" stroke-linejoin="round"/>
  <path d="M 88 56 L 96 64 L 88 72" stroke="#fff" stroke-width="4" fill="none" stroke-linecap="round" stroke-linejoin="round"/>
  
  <!-- Data flow arrows -->
  <path d="M 56 40 L 64 32 L 72 40" stroke="#fff" stroke-width="3" fill="none" stroke-linecap="round" stroke-linejoin="round"/>
  <path d="M 56 88 L 64 96 L 72 88" stroke="#fff" stroke-width="3" fill="none" stroke-linecap="round" stroke-linejoin="round"/>
</svg>
